<?xml version="1.0" encoding="UTF-8"?>
<svg version="1.1" xmlns="http://www.w3.org/2000/svg" width="1865" height="310">
<path d="M0 0 C2.92834901 0.03989464 5.8566901 0.07442398 8.78515625 0.10449219 C50.01411245 0.53277492 50.01411245 0.53277492 63.23266602 5.30761719 C63.97476318 5.56849121 64.71686035 5.82936523 65.48144531 6.09814453 C86.46719087 13.79689717 101.99866823 28.20088847 111.42016602 48.49511719 C119.83646998 69.62939159 119.04885632 92.60612375 110.50610352 113.60058594 C107.74861884 119.41784639 104.30284118 124.80124637 100.33422852 129.86621094 C98.85225035 131.58323068 98.85225035 131.58323068 99.04516602 133.68261719 C100.31706792 134.71397026 101.64063075 135.68183954 102.98266602 136.62011719 C116.7513381 147.15164066 126.03598848 164.22316466 128.76391602 181.30371094 C131.401614 203.61423969 127.94742206 224.61089064 114.42016602 242.93261719 C100.3815594 259.33788546 80.18297442 266.72860936 60.04516602 272.68261719 C59.46546743 272.85714165 58.88576885 273.03166611 58.28850365 273.21147919 C55.49563223 273.79802837 52.8788388 273.82822812 50.02383423 273.84997559 C48.79012589 273.86146637 47.55641754 273.87295715 46.2853241 273.88479614 C44.92092977 273.89242043 43.55653459 273.89989211 42.19213867 273.90722656 C40.75302376 273.91840631 39.31391141 273.92991978 37.87480164 273.94174194 C33.15298053 273.9782373 28.4311331 274.00350481 23.70922852 274.02636719 C22.90543495 274.03031305 22.10164138 274.03425892 21.27349043 274.03832436 C13.6917674 274.07472883 6.11003494 274.10616566 -1.47174644 274.12743378 C-11.16442071 274.15502784 -20.85636484 274.20584998 -30.54873502 274.28790808 C-37.36752941 274.34368257 -44.18612549 274.37266682 -51.00513995 274.38190699 C-55.07676685 274.38816518 -59.14753645 274.40629206 -63.21891403 274.45329285 C-67.04909887 274.49696492 -70.87795774 274.50744741 -74.70834923 274.49266434 C-76.11203901 274.49299294 -77.51578583 274.50526661 -78.91924858 274.53051376 C-89.43266811 274.7096264 -89.43266811 274.7096264 -93.12780666 272.21650696 C-97.14832522 267.79792053 -97.85497392 263.777858 -97.78686523 257.93261719 C-97.79497726 257.11567383 -97.80308929 256.29873047 -97.81144714 255.45703125 C-97.81986736 253.73926621 -97.81314001 252.02136643 -97.79199219 250.30371094 C-97.76738274 247.68779946 -97.81215466 245.07927419 -97.86303711 242.46386719 C-97.93759279 228.54680744 -97.93759279 228.54680744 -93.59155273 224.05761719 C-89.94377395 221.25587541 -86.68917225 220.55831069 -82.15280151 220.53112793 C-81.16354675 220.52278427 -80.17429199 220.51444061 -79.15505981 220.50584412 C-77.52816727 220.49956749 -77.52816727 220.49956749 -75.8684082 220.49316406 C-74.72484863 220.48487076 -73.58128906 220.47657745 -72.40307617 220.46803284 C-69.91331249 220.45060989 -67.42353221 220.43544925 -64.93374252 220.42225647 C-60.9802096 220.40121116 -57.02675773 220.37418135 -53.07327271 220.34558105 C-45.37203872 220.29057553 -37.67076969 220.24250132 -29.96948242 220.19564056 C-20.21838488 220.13628866 -10.46730693 220.07547102 -0.71628201 220.0050683 C3.82251793 219.97260389 8.36132708 219.94701563 12.900177 219.92272949 C42.81146287 221.38779969 42.81146287 221.38779969 69.04516602 209.68261719 C73.46332614 203.34829369 74.89908124 196.29669464 74.04516602 188.68261719 C72.34784511 182.46525693 70.06293441 177.86409085 65.04516602 173.68261719 C64.13766602 172.81636719 63.23016602 171.95011719 62.29516602 171.05761719 C51.20725519 162.13114721 33.48409904 164.52376126 20.07282639 164.42225647 C17.23930585 164.40076576 14.40587954 164.37377651 11.57241821 164.34558105 C5.52170714 164.28639646 -0.52905486 164.23428877 -6.57983398 164.18261719 C-21.1309124 164.05658144 -35.6814102 163.90982213 -50.23176575 163.71685791 C-52.92047355 163.68304925 -55.60919143 163.65461943 -58.29797363 163.62744141 C-62.43077761 163.58406797 -66.56279011 163.52056492 -70.69504929 163.44090271 C-72.19669959 163.41490063 -73.69848075 163.39547686 -75.20030594 163.38319397 C-77.24868019 163.36520949 -79.295171 163.32293462 -81.34301758 163.27441406 C-82.48274017 163.25664917 -83.62246277 163.23888428 -84.79672241 163.22058105 C-89.56761302 162.40789072 -92.77238496 160.15270175 -95.7824707 156.41040039 C-97.26437136 152.96240454 -97.56124663 149.73802418 -97.71264648 146.03808594 C-97.7471994 145.30946854 -97.78175232 144.58085114 -97.81735229 143.83015442 C-97.88362772 142.29325297 -97.94199803 140.75599259 -97.99291992 139.21850586 C-98.07928753 136.88488227 -98.21921017 134.5583584 -98.36108398 132.22753906 C-98.41909286 130.72701274 -98.47388413 129.22635789 -98.52514648 127.72558594 C-98.5737381 127.038853 -98.62232971 126.35212006 -98.6723938 125.64457703 C-98.73827661 121.61897846 -97.79773881 118.63319437 -95.6105957 115.24169922 C-91.1753332 110.69205623 -85.98064196 110.75773324 -79.99181938 110.64043045 C-77.29132736 110.6332359 -74.59263908 110.66354411 -71.89233398 110.69433594 C-69.97312704 110.68685886 -68.05393132 110.67569358 -66.13476562 110.66105652 C-61.08562881 110.63127258 -56.03764561 110.64727682 -50.98852539 110.67247772 C-46.11255781 110.6887746 -41.23697044 110.66166825 -36.36108398 110.63427734 C-34.44685922 110.6245867 -32.53263395 110.61499391 -30.6184082 110.60549927 C-29.67334412 110.6007169 -28.72828003 110.59593452 -27.75457764 110.59100723 C-22.98019646 110.56788999 -18.20580078 110.54979747 -13.43139648 110.53222656 C-12.489263 110.52833986 -11.54712952 110.52445316 -10.57644653 110.52044868 C-5.72427058 110.50190296 -0.87246463 110.49503346 3.97973633 110.50756836 C8.81477474 110.51925682 13.64895266 110.50184524 18.4838562 110.46512413 C20.28895214 110.45660322 22.09413256 110.45844168 23.89920044 110.47162819 C35.93296342 110.55346401 44.28165495 109.43879682 53.79907227 101.33886719 C54.69432617 100.27152344 54.69432617 100.27152344 55.60766602 99.18261719 C56.22770508 98.47105469 56.84774414 97.75949219 57.48657227 97.02636719 C62.2352765 89.88545856 61.91439755 81.328319 60.65063477 73.12011719 C58.96082362 66.84056093 55.26433717 62.47432273 50.04516602 58.68261719 C38.61002174 52.95513591 23.17664642 54.5292741 10.63385963 54.42225647 C8.10690006 54.40065955 5.58004152 54.37368512 3.05314636 54.34558105 C-2.34530385 54.28653836 -7.74380996 54.23438618 -13.14233398 54.18261719 C-25.37755073 54.0634901 -37.61232367 53.92977339 -49.84686279 53.75341797 C-53.27036029 53.70437035 -56.69382935 53.6630051 -60.11749268 53.62744141 C-64.22776284 53.5835358 -68.33727042 53.5196554 -72.44701576 53.44090271 C-73.96920083 53.41483479 -75.49151699 53.39544506 -77.01387596 53.38319397 C-79.10346091 53.36519662 -81.19120343 53.32284696 -83.28027344 53.27441406 C-84.454272 53.25664917 -85.62827057 53.23888428 -86.83784485 53.22058105 C-91.16679631 52.47344356 -93.68653625 50.42386384 -96.24853516 46.90649414 C-97.27973114 43.65963475 -97.2599995 40.4732038 -97.25561523 37.10058594 C-97.26204292 36.0019799 -97.26204292 36.0019799 -97.26860046 34.88117981 C-97.27433275 33.33380158 -97.27485213 31.78639642 -97.27050781 30.23901367 C-97.26735842 27.88835832 -97.29078194 25.53897549 -97.31616211 23.18847656 C-97.3184365 21.68001459 -97.31913795 20.17154927 -97.31811523 18.66308594 C-97.32732498 17.96805466 -97.33653473 17.27302338 -97.34602356 16.55693054 C-97.30008729 11.63595625 -96.36346022 7.97385538 -93.95483398 3.68261719 C-90.45139654 0.81302655 -87.63934127 0.28798375 -83.17749023 0.17089844 C-82.02055664 0.13544922 -80.86362305 0.1 -79.67163086 0.06347656 C-78.46571289 0.04091797 -77.25979492 0.01835937 -76.01733398 -0.00488281 C-74.9080957 -0.03904297 -73.79885742 -0.07320312 -72.65600586 -0.10839844 C-48.45396971 -0.75116254 -24.20577102 -0.33323242 0 0 Z " fill="#FEFEFE" transform="translate(251.954833984375,17.3173828125)"/>
<path d="M0 0 C0.96006454 0.00091644 1.92012909 0.00183289 2.9092865 0.0027771 C4.93412231 0.00880655 6.95894947 0.02453279 8.98364258 0.04931641 C12.08252825 0.08585125 15.18021817 0.09033539 18.27929688 0.08984375 C20.24870825 0.09967444 22.21811153 0.11133123 24.1875 0.125 C25.11361588 0.12722565 26.03973175 0.12945129 26.99391174 0.13174438 C28.2906205 0.15088394 28.2906205 0.15088394 29.61352539 0.17041016 C30.7500631 0.18184555 30.7500631 0.18184555 31.90956116 0.19351196 C34.36001513 0.50294598 35.94052462 1.1467072 38.02734375 2.4609375 C39.36960976 4.60551251 40.45827216 6.62164242 41.52734375 8.8984375 C41.86789795 9.60395752 42.20845215 10.30947754 42.55932617 11.03637695 C43.73590133 13.50211447 44.88500372 15.97915868 46.02734375 18.4609375 C46.63763428 19.78448242 46.63763428 19.78448242 47.26025391 21.13476562 C56.38953418 41.0771327 64.7880892 61.34511477 73.28535461 81.56190491 C77.29497304 91.10162106 81.31996299 100.63481178 85.34716797 110.16711426 C86.92728154 113.90770789 88.50648952 117.64868356 90.08572388 121.38964844 C93.65914644 129.85443359 97.23478349 138.31827887 100.8125 146.78125 C104.76949645 156.14183795 108.72097571 165.50474213 112.66894531 174.86914062 C114.24983116 178.6185998 115.83266502 182.36722808 117.41699219 186.11523438 C147.73806161 257.86373377 147.73806161 257.86373377 146.02734375 265.4609375 C144.00455079 268.46149995 141.63052562 270.95763791 139.02734375 273.4609375 C138.69734375 273.7909375 138.36734375 274.1209375 138.02734375 274.4609375 C135.45992288 274.56096001 132.91934155 274.59534311 130.35137939 274.58792114 C129.53698009 274.58948113 128.72258079 274.59104112 127.88350272 274.59264839 C125.13097604 274.59666348 122.37850373 274.59346624 119.62597656 274.59033203 C117.6594591 274.59168631 115.69294189 274.59346639 113.72642517 274.59564209 C108.35379326 274.60022639 102.98118043 274.59841936 97.60854816 274.595263 C91.95076255 274.59272894 86.29297855 274.5950813 80.63519287 274.59664917 C71.08475453 274.59847435 61.53432389 274.5960623 51.98388672 274.59130859 C41.06196688 274.58593373 30.1400659 274.58757692 19.21814656 274.593135 C9.78225525 274.59773924 0.34636948 274.59827967 -9.0895226 274.59569633 C-14.69628915 274.59416412 -20.303047 274.59385151 -25.90981293 274.59723282 C-47.69290187 274.60830881 -69.47685501 274.55683586 -91.25730562 274.1885221 C-93.24096126 274.15658616 -95.22469935 274.12937778 -97.20848799 274.10719132 C-99.93472581 274.07506495 -102.65996931 274.02417297 -105.38580322 273.96798706 C-106.18653338 273.96201405 -106.98726354 273.95604105 -107.81225824 273.94988704 C-112.36244044 273.83119234 -115.3387975 273.25487206 -118.97265625 270.4609375 C-121.64328382 267.40198363 -123.1124711 264.43283426 -123.97265625 260.4609375 C-123.14600448 255.60091087 -121.2320733 251.41172227 -119.16015625 246.9609375 C-118.41475586 245.22263672 -118.41475586 245.22263672 -117.65429688 243.44921875 C-110.40540594 226.89368719 -110.40540594 226.89368719 -104.97265625 221.4609375 C-102.95165443 221.18288517 -102.95165443 221.18288517 -100.41519165 221.14308167 C-98.97304983 221.11358397 -98.97304983 221.11358397 -97.50177383 221.08349037 C-96.44238476 221.0721324 -95.38299568 221.06077442 -94.29150391 221.04907227 C-93.17807491 221.02982885 -92.06464592 221.01058544 -90.91747665 220.9907589 C-87.19896935 220.92998271 -83.48045306 220.88443611 -79.76171875 220.83984375 C-77.14156671 220.80202124 -74.52141905 220.76389456 -71.90127563 220.72547913 C-44.03205498 220.33505869 -16.16120371 220.34376065 11.71020508 220.39227295 C17.77463834 220.40175626 23.83907356 220.40616021 29.90351224 220.41061389 C43.61146719 220.4208101 57.31940429 220.43815686 71.02734375 220.4609375 C70.52167374 219.25325714 70.01600372 218.04557678 69.49501038 216.80130005 C67.5806722 212.22924446 65.66648326 207.65712639 63.75233459 203.08499146 C62.93102386 201.12326436 62.10967509 199.16155319 61.2882843 197.19985962 C52.02363985 175.07333803 42.78165514 152.93747453 33.59765625 130.77734375 C33.22171829 129.87028687 32.84578033 128.96322998 32.45845032 128.02868652 C30.64180568 123.64502015 28.82594719 119.26103072 27.01147461 114.87646484 C25.02142931 110.06934476 23.02600478 105.26448128 21.02734375 100.4609375 C20.66050476 99.57835266 20.29366577 98.69576782 19.91571045 97.78643799 C18.80859746 95.12597315 17.69781715 92.46706949 16.5859375 89.80859375 C16.24385757 88.98572372 15.90177765 88.1628537 15.54933167 87.31504822 C14.21753875 83.62258076 14.21753875 83.62258076 12.02734375 80.4609375 C9.56672924 86.23080053 7.10878785 92.00179778 4.65234375 97.7734375 C4.27485992 98.66018158 3.8973761 99.54692566 3.50845337 100.46054077 C-2.09592131 113.63106423 -7.63917974 126.82590003 -13.14474487 140.03799438 C-18.58985249 153.09887965 -24.05879087 166.14542549 -29.78515625 179.0859375 C-30.24639893 180.13305908 -30.7076416 181.18018066 -31.18286133 182.2590332 C-32.41290097 185.01016605 -33.67987895 187.73881099 -34.97265625 190.4609375 C-35.55926025 191.74436035 -35.55926025 191.74436035 -36.15771484 193.05371094 C-36.75253662 194.25688965 -36.75253662 194.25688965 -37.359375 195.484375 C-37.69541748 196.18224121 -38.03145996 196.88010742 -38.37768555 197.59912109 C-41.73485584 201.51796093 -45.97541882 202.36199163 -50.88500977 202.84912109 C-52.29039594 202.86864136 -53.69609208 202.87138544 -55.1015625 202.859375 C-56.23065285 202.86368027 -56.23065285 202.86368027 -57.3825531 202.86807251 C-58.96329507 202.87010151 -60.54406283 202.86465367 -62.12475586 202.85205078 C-64.5323128 202.83595651 -66.93819714 202.85194955 -69.34570312 202.87109375 C-70.88932659 202.86911155 -72.43294902 202.86526835 -73.9765625 202.859375 C-74.68921768 202.86544769 -75.40187286 202.87152039 -76.13612366 202.8777771 C-80.81123948 202.81253953 -84.00313374 201.92336597 -87.97265625 199.4609375 C-91.40859426 195.57290238 -92.32878061 192.82589292 -92.20068359 187.66381836 C-91.79473038 183.7420669 -90.4942671 180.25424397 -89.09765625 176.5859375 C-88.58295776 175.20353882 -88.58295776 175.20353882 -88.05786133 173.79321289 C-82.41943716 159.00762383 -75.94477059 144.54282837 -69.66363525 130.022995 C-65.20887166 119.71419817 -60.83480894 109.37169616 -56.47265625 99.0234375 C-56.08238251 98.0978302 -55.69210876 97.1722229 -55.29000854 96.21856689 C-52.91666827 90.58841274 -50.54630406 84.9570111 -48.17749023 79.32495117 C-46.95165782 76.41102209 -45.72491959 73.49747558 -44.49804688 70.58398438 C-42.45813261 65.73876175 -40.42121872 60.89228736 -38.38647461 56.04489136 C-37.62696962 54.23624742 -36.86674858 52.42790395 -36.10571289 50.61990356 C-32.016053 40.90074534 -28.0007934 31.16862325 -24.30499268 21.29145813 C-22.83508045 17.42168404 -21.23773629 13.95170177 -18.97265625 10.4609375 C-18.35390625 9.4503125 -17.73515625 8.4396875 -17.09765625 7.3984375 C-12.09285105 0.48003032 -8.11099813 -0.12613838 0 0 Z " fill="#FEFEFE" transform="translate(973.97265625,17.5390625)"/>
<path d="M0 0 C11.70932417 -0.10912923 23.41785397 -0.12020916 35.12758636 -0.10484314 C38.60393175 -0.10223968 42.08025182 -0.10711373 45.55659389 -0.11168098 C61.70553375 -0.12990099 77.85053198 -0.08439773 93.99337006 0.39710999 C95.13238266 0.42642609 96.27139526 0.45574219 97.4449234 0.48594666 C123.32330475 1.40089507 145.46902969 11.8026266 163.32540131 30.32679749 C178.32781139 47.55086231 183.84867737 66.39182941 183.91329193 89.02577209 C183.92291986 91.05558002 183.95397279 93.08433889 183.98555756 95.11390686 C184.1668622 117.30599999 177.0310045 135.23576583 161.73555756 151.33460999 C154.06042595 158.66156008 144.85734196 163.83030661 135.67305756 169.02210999 C137.07837229 174.0488127 139.41514447 178.04327861 142.29805756 182.33460999 C143.29765775 183.85094265 144.29629672 185.36790927 145.29415131 186.88539124 C145.83668549 187.70732971 146.37921967 188.52926819 146.93819427 189.37611389 C150.12127462 194.23091614 153.23683729 199.1289911 156.36055756 204.02210999 C157.72889967 206.16282925 159.09739139 208.3034529 160.46602631 210.44398499 C161.15615814 211.52357483 161.84628998 212.60316467 162.5573349 213.71546936 C165.39848401 218.15587133 168.24638948 222.59192523 171.09395599 227.0282135 C173.73208876 231.14433257 176.35883567 235.26766651 178.98604584 239.39076233 C180.44785921 241.67085271 181.92763947 243.93718625 183.41915131 246.19789124 C190.11832526 256.45441136 190.11832526 256.45441136 189.67305756 263.02210999 C188.13433234 267.51807274 186.66938306 270.35789299 182.67305756 273.02210999 C180.68225861 273.29626465 180.68225861 273.29626465 178.38863373 273.32850647 C177.09665321 273.35248756 177.09665321 273.35248756 175.77857208 273.37695312 C174.85043198 273.38231583 173.92229187 273.38767853 172.96602631 273.39320374 C172.00787521 273.40223221 171.04972412 273.41126068 170.06253815 273.42056274 C168.03422422 273.4350742 166.00586339 273.4439542 163.97750092 273.44764709 C160.88237236 273.45952626 157.7892486 273.50868851 154.69454193 273.55921936 C152.72254644 273.56868571 150.75053872 273.57591973 148.77852631 273.58070374 C147.85645889 273.60023605 146.93439148 273.61976837 145.98438263 273.63989258 C141.69524658 273.60995586 138.65162657 273.48204955 135.22505951 270.74281311 C133.14104355 268.52103239 131.35502466 266.49714033 129.73555756 263.93226624 C128.99329926 262.77356018 128.99329926 262.77356018 128.23604584 261.59144592 C127.7202597 260.76419006 127.20447357 259.9369342 126.67305756 259.08460999 C126.11473236 258.20708069 125.55640717 257.32955139 124.98116302 256.4254303 C123.79973191 254.5665927 122.6225676 252.70503718 121.44942474 250.84095764 C119.72584108 248.10587009 117.98755533 245.38081484 116.24337006 242.65882874 C108.99569904 231.33749876 101.84770011 219.95387435 94.73165131 208.54945374 C94.09235687 207.5904718 93.45306244 206.63148987 92.79439545 205.64344788 C90.98035385 202.76931464 89.75887489 199.8192368 88.50289154 196.66444397 C85.82233016 190.55846916 83.1082494 185.09030888 77.67305756 181.02210999 C67.66287821 177.66906879 56.58815577 178.63917381 46.18532562 179.11659241 C42.29115323 179.27240429 38.39597618 179.30679466 34.49922943 179.35218811 C26.88454365 179.4584129 19.28187787 179.69691964 11.67305756 180.02210999 C11.68638123 181.09872894 11.6997049 182.1753479 11.71343231 183.28459167 C11.83512648 193.43672618 11.92503623 203.58871248 11.98393059 213.74141121 C12.01522718 218.96093803 12.05766987 224.17987549 12.12569427 229.39906311 C12.19094586 234.43710486 12.22677618 239.47458019 12.24232101 244.51301193 C12.25339692 246.43399344 12.27502626 248.35494436 12.3074379 250.27568436 C12.35107938 252.96934429 12.35698861 255.66067223 12.3542099 258.35462952 C12.37578156 259.14657211 12.39735321 259.93851471 12.41957855 260.75445557 C12.37243402 264.98580715 11.83872213 267.37012151 8.90233612 270.51530457 C6.43278422 272.64941016 4.67169447 273.77554398 1.32344818 273.79847717 C0.52241669 273.81739014 -0.27861481 273.8363031 -1.10391998 273.85578918 C-2.37447235 273.83757111 -2.37447235 273.83757111 -3.67069244 273.81898499 C-5.00166962 273.82759552 -5.00166962 273.82759552 -6.35953522 273.83638 C-8.22874262 273.84044868 -10.09803639 273.82947629 -11.96707916 273.80433655 C-14.81944887 273.77219443 -17.66615407 273.80405877 -20.51834869 273.84242249 C-22.33997571 273.83845738 -24.16159923 273.83076948 -25.98319244 273.81898499 C-26.83022736 273.83113037 -27.67726227 273.84327576 -28.5499649 273.85578918 C-29.75151215 273.82741974 -29.75151215 273.82741974 -30.97733307 273.79847717 C-31.67427277 273.79370361 -32.37121246 273.78893005 -33.08927155 273.78401184 C-36.87707828 272.49430611 -39.30254337 270.38968355 -41.32694244 267.02210999 C-42.18412096 263.01412324 -42.09606959 259.0943047 -42.02396393 255.00917053 C-42.02644638 253.80355469 -42.02892883 252.59793884 -42.03148651 251.35578918 C-42.03224609 248.05931417 -42.00636964 244.76511021 -41.96823764 241.4689939 C-41.93431893 238.00992767 -41.93385108 234.55085111 -41.92949677 231.09164429 C-41.91754861 225.28023608 -41.88377887 219.46930321 -41.8345108 213.65809631 C-41.76527027 205.48624162 -41.73577267 197.31460088 -41.71411026 189.14250124 C-41.69575177 182.77291284 -41.66644072 176.4033668 -41.63553619 170.03382874 C-41.63236476 169.3554721 -41.62919332 168.67711547 -41.62592578 167.97820258 C-41.60406614 163.45979731 -41.57219035 158.9415415 -41.53568268 154.42323303 C-41.52985168 153.29617447 -41.52402069 152.16911591 -41.518013 151.00790405 C-41.35958029 134.36174827 -41.35958029 134.36174827 -38.01444244 130.02210999 C-28.3751974 122.84871833 -9.27367902 125.8456994 2.18927193 125.79231453 C5.635064 125.77569071 9.08075618 125.7524482 12.52649689 125.72741699 C22.31496317 125.65722034 32.10346872 125.59668698 41.8920517 125.54530334 C47.90475033 125.51327952 53.91732923 125.471956 59.92992973 125.42510796 C62.20258346 125.4092385 64.47526455 125.39684885 66.74795723 125.38820076 C96.48075894 126.09205289 96.48075894 126.09205289 122.05196381 112.92054749 C129.28362587 104.45166131 129.25758809 94.64108144 128.67305756 84.02210999 C127.26627019 75.09258678 122.92787701 68.46253576 115.98555756 62.77210999 C105.47348489 55.38143821 93.77956537 54.88503876 81.40718842 54.77259827 C80.1868541 54.75776398 78.96651978 54.74292969 77.70920563 54.72764587 C75.06669046 54.69581209 72.42420753 54.66554717 69.78165245 54.63768387 C65.59973612 54.59304204 61.41796704 54.53930085 57.23618317 54.48374939 C45.34897711 54.32690989 33.46172725 54.17671608 21.5741806 54.04798889 C14.99964005 53.97671944 8.42531474 53.89504461 1.85104853 53.80177104 C-1.62321379 53.75294212 -5.09735651 53.70955522 -8.57183266 53.67912674 C-12.44497531 53.64519555 -16.31761128 53.58869493 -20.19046783 53.53041077 C-21.33609192 53.52406616 -22.481716 53.51772156 -23.66205597 53.51118469 C-33.65920111 53.32691473 -33.65920111 53.32691473 -38.32694244 50.02210999 C-42.18796016 43.32642103 -41.78679768 36.04401945 -41.71805573 28.5035553 C-41.70192251 26.39450433 -41.71798839 24.28735398 -41.73709869 22.17835999 C-41.73511695 20.82158498 -41.73127469 19.46481114 -41.72537994 18.10804749 C-41.72199615 16.89165588 -41.71861237 15.67526428 -41.71512604 14.42201233 C-41.1301882 9.29883984 -39.62797343 6.29341759 -35.9438858 2.6934967 C-30.51381735 0.18426629 -25.37573837 0.34559453 -19.45584869 0.27992249 C-17.49428581 0.23715683 -17.49428581 0.23715683 -15.4930954 0.19352722 C-10.32907179 0.08736936 -5.16479562 0.04907451 0 0 Z " fill="#FEFEFE" transform="translate(1353.3269424438477,16.977890014648438)"/>
<path d="M0 0 C1.8303449 -0.02656665 3.66054123 -0.06744801 5.49023438 -0.12304688 C8.13627283 -0.20248306 10.77945506 -0.23535753 13.42651367 -0.25878906 C14.23718796 -0.29178101 15.04786224 -0.32477295 15.88310242 -0.35876465 C20.18236472 -0.34376953 23.15999361 0.33378815 26.58618164 3.01538086 C31.502283 8.659545 30.54379756 16.24277423 30.47338867 23.29199219 C30.48289518 24.87136897 30.49546686 26.45072992 30.51091003 28.03005981 C30.54357335 32.24090289 30.53393305 36.45065127 30.51566315 40.66154099 C30.50375486 45.02942617 30.53033295 49.39707437 30.55297852 53.76489258 C30.58746501 61.42519098 30.59036815 69.08505362 30.57710266 76.74540424 C30.56724479 83.24691326 30.59725956 89.74768274 30.64526367 96.24902344 C30.70853837 105.9872743 30.6708641 115.72209741 30.57104492 125.45996094 C30.56244446 126.3879248 30.55384399 127.31588867 30.54498291 128.27197266 C30.48728322 134.32881298 30.40876141 140.38493588 30.30657959 146.44119263 C30.27534426 148.36355477 30.24799194 150.28598528 30.22515869 152.20846558 C29.75995447 188.98059482 20.28169146 222.0765505 -6.42895508 248.45996094 C-21.84625134 262.57110199 -43.05432869 275.88585911 -64.42895508 276.95996094 C-69.39753633 276.71060835 -72.38013349 274.20267203 -76.06974792 271.0643158 C-78.49693968 268.19935377 -77.83228818 264.36436949 -77.79223633 260.77636719 C-77.79273483 259.92445297 -77.79323334 259.07253876 -77.79374695 258.19480896 C-77.79140699 256.39343941 -77.78168299 254.59206656 -77.76513672 252.79077148 C-77.74157366 250.03632276 -77.74457262 247.28284402 -77.7512207 244.52832031 C-77.74564278 242.77766351 -77.73853218 241.02701078 -77.72973633 239.27636719 C-77.73064774 238.4533461 -77.73155914 237.63032501 -77.73249817 236.78236389 C-77.64320846 229.56178425 -77.64320846 229.56178425 -75.42895508 226.45996094 C-73.53833008 225.00292969 -73.53833008 225.00292969 -71.17895508 223.64746094 C-69.8409082 222.87595703 -69.8409082 222.87595703 -68.47583008 222.08886719 C-65.16991021 220.32147156 -61.80932821 218.70503059 -58.42895508 217.08496094 C-43.14513691 209.59459113 -35.76725082 198.96521334 -29.42895508 183.45996094 C-26.0245808 173.24683811 -27.1750836 160.57194762 -26.98504639 149.87823486 C-26.9268956 146.65842743 -26.8596992 143.43887334 -26.79272461 140.21923828 C-26.50094369 125.07291028 -26.40507021 109.93141287 -26.39630127 94.78233337 C-26.39112304 86.36967176 -26.36281411 77.95711438 -26.3313179 69.54451466 C-26.30641173 62.24843578 -26.3131097 54.95319071 -26.3409481 47.65713406 C-26.35122609 43.02818988 -26.33229963 38.39968468 -26.30583572 33.77081871 C-26.29942433 31.58606773 -26.30522632 29.40124342 -26.32383347 27.21656227 C-26.34792302 24.19130874 -26.32880988 21.16918489 -26.29956055 18.14404297 C-26.31694527 17.26119283 -26.33432999 16.37834269 -26.35224152 15.46873951 C-26.25291637 10.53020949 -25.50615829 8.00029028 -21.99954224 4.41720581 C-15.71621932 -1.17619931 -8.01131241 0.08878387 0 0 Z " fill="#FEFEFE" transform="translate(1821.428955078125,17.5400390625)"/>
<path d="M0 0 C0.7748877 0.00676758 1.54977539 0.01353516 2.34814453 0.02050781 C8.12636755 0.12055355 13.87208992 0.45468928 19.625 1 C20.37942383 1.06155273 21.13384766 1.12310547 21.91113281 1.18652344 C26.61902516 1.70342642 28.78934354 2.58235165 31.75 6.25 C34.33274286 14.29703964 34.04879021 23.2133266 34.05297852 31.57983398 C34.06141785 32.85483261 34.06985718 34.12983124 34.07855225 35.44346619 C34.09667207 38.19336404 34.10881167 40.94319613 34.11609077 43.69314384 C34.12772001 48.06438659 34.15324214 52.43548603 34.18040466 56.80665588 C34.2218947 63.74045236 34.25436701 70.67425626 34.28287882 77.60811716 C34.33385676 89.97605705 34.39692089 102.34393084 34.46821922 114.71176964 C34.49273833 119.03361941 34.51221496 123.35545323 34.52773589 127.67734414 C34.57369937 139.87725162 34.63599463 152.06911774 35.19897461 164.25805664 C35.2367505 165.08417922 35.27452639 165.9103018 35.313447 166.7614584 C36.11735662 181.94458703 41.25023946 196.96315097 51.75 208.25 C58.97009335 214.17679031 66.91393888 218.60978553 75.3684082 222.51123047 C79.16207339 224.29228947 82.08361586 225.98384241 84.75 229.25 C86.74637844 235.23913532 86.13826856 242.09801229 86.20996094 248.38208008 C86.2365775 250.16392889 86.27751415 251.94562331 86.33300781 253.72680664 C86.41230417 256.30417701 86.44528779 258.87861866 86.46875 261.45703125 C86.50174194 262.24785599 86.53473389 263.03868073 86.56872559 263.85346985 C86.55639523 267.2828497 86.45791747 269.40056932 84.21313477 272.09408569 C79.81599558 275.93060816 76.68285556 277.68183475 70.6796875 277.5859375 C44.90679062 274.63064532 20.59687671 257.17143363 4.0625 238.0625 C-15.68472255 212.85176018 -20.94768427 183.27424307 -21.8125 152.0625 C-21.83334656 151.31782471 -21.85419312 150.57314941 -21.87567139 149.8059082 C-22.37328278 131.38516929 -22.41747179 112.96689081 -22.30352783 94.54074097 C-22.26268195 87.63317605 -22.24848131 80.72649673 -22.26025391 73.81884766 C-22.2731528 66.13584115 -22.25886683 58.45333246 -22.21832275 50.77041817 C-22.19666894 46.4993005 -22.18697871 42.22891026 -22.20587158 37.95776367 C-22.22320339 33.90555731 -22.20708268 29.85479678 -22.16644859 25.80277061 C-22.15714051 24.29601269 -22.15982969 22.78912675 -22.17527199 21.2824192 C-22.2827168 9.76658512 -22.2827168 9.76658512 -19.73434448 6.02420044 C-13.89087126 0.85541339 -7.62191259 -0.0965853 0 0 Z " fill="#FEFEFE" transform="translate(1635.25,16.75)"/>
<path d="M0 0 C1.37723236 -0.03839241 1.37723236 -0.03839241 2.7822876 -0.07756042 C3.77291199 -0.087173 4.76353638 -0.09678558 5.78417969 -0.10668945 C6.80654724 -0.121418 7.82891479 -0.13614655 8.88226318 -0.15132141 C11.04757198 -0.17528618 13.2129897 -0.1906977 15.37841797 -0.19824219 C18.68094006 -0.21980671 21.97877738 -0.29994963 25.28027344 -0.38208008 C27.38571773 -0.3980796 29.49119227 -0.41056278 31.59667969 -0.41918945 C32.57920715 -0.45106857 33.56173462 -0.48294769 34.57403564 -0.51579285 C38.62770586 -0.47625265 41.36344513 -0.36599958 44.65026855 2.14144897 C47.89105977 5.65645703 49.80763329 8.41475087 50.45605469 13.2175293 C49.92635013 19.68188673 46.02212328 23.93216841 41.9453125 28.71606445 C40.33759123 30.6068501 38.76618822 32.52411817 37.19824219 34.44799805 C34.96863675 37.1787819 32.7270251 39.89860275 30.47167969 42.6081543 C26.85079285 46.96993431 23.27769468 51.36994009 19.70507812 55.77124023 C19.10315643 56.5124411 18.50123474 57.25364197 17.881073 58.01730347 C16.40588143 59.83389495 14.93088049 61.65064085 13.45605469 63.4675293 C14.52369442 63.46558107 14.52369442 63.46558107 15.61290264 63.46359348 C32.93111743 63.43439279 50.24888149 63.44373862 67.56704235 63.49599552 C75.9420249 63.52033702 84.31664555 63.53162836 92.69165039 63.51220703 C99.99130172 63.49531251 107.29044689 63.50289422 114.59003145 63.53987688 C118.45536453 63.55860518 122.3198416 63.56506986 126.18517113 63.54222298 C129.82425433 63.52110012 133.46176979 63.5327272 137.10071564 63.56937408 C139.07142565 63.58072502 141.04223995 63.55744252 143.01283264 63.53312683 C151.41106871 63.66188584 151.41106871 63.66188584 154.36299133 65.93770313 C157.77070098 70.42239882 158.19189049 74.74795886 158.12011719 80.25268555 C158.12490082 81.07200058 158.12968445 81.89131561 158.13461304 82.73545837 C158.13799727 84.45744766 158.12889866 86.17950249 158.10791016 87.90136719 C158.08108463 90.52709819 158.10772176 93.14856913 158.13964844 95.77416992 C158.13634475 97.45451783 158.12993934 99.1348631 158.12011719 100.81518555 C158.13023834 101.59346207 158.1403595 102.37173859 158.15078735 103.17359924 C158.06682338 107.10383771 157.66597895 109.72379376 155.22705078 112.88330078 C150.49767292 117.29391441 146.2794664 117.76170577 139.99728394 117.71476746 C139.25504393 117.71718187 138.51280392 117.71959629 137.74807179 117.72208387 C135.26506334 117.72771164 132.78231323 117.71906422 130.29931641 117.71044922 C128.5166212 117.71152246 126.73392633 117.71346177 124.95123291 117.71620178 C120.10739812 117.72105145 115.26365542 117.7133889 110.41983175 117.70324874 C105.33580732 117.6944505 100.25178563 117.69622616 95.16775513 117.6966095 C86.61491361 117.69567238 78.06210752 117.68698909 69.50927734 117.67333984 C59.66375259 117.65768418 49.81826682 117.65233935 39.97273052 117.6530754 C29.45324899 117.6537553 18.93378224 117.64678155 8.41430521 117.63762879 C5.40558597 117.63551201 2.39686917 117.63478956 -0.61185074 117.63438988 C-5.3774148 117.63337241 -10.14294714 117.62716366 -14.90850067 117.61722374 C-16.64208405 117.61434388 -18.37567108 117.61306398 -20.10925674 117.61365128 C-29.04957379 117.61553099 -37.9830294 117.49874397 -46.91696167 117.14595032 C-47.70824341 117.12403222 -48.49952515 117.10211413 -49.31478512 117.07953185 C-53.8244829 116.86843518 -56.87532894 116.3551474 -60.54394531 113.4675293 C-64.91765902 106.59455062 -64.70669706 98.97006074 -64.66894531 91.0925293 C-64.6728125 90.29331055 -64.67667969 89.4940918 -64.68066406 88.6706543 C-64.65513414 72.89316398 -64.65513414 72.89316398 -60.29394531 67.4050293 C-59.21886719 66.02831055 -59.21886719 66.02831055 -58.12207031 64.6237793 C-57.2640003 63.57063136 -56.40451051 62.51863932 -55.54394531 61.4675293 C-54.49647586 60.16592413 -53.44963713 58.86381121 -52.40332031 57.5612793 C-49.62961297 54.12181708 -46.83263966 50.70201019 -44.03027344 47.28588867 C-42.09944979 44.9237378 -40.1942315 42.54178874 -38.29394531 40.1550293 C-28.35205058 27.70171648 -18.2494087 15.27844814 -7.54394531 3.4675293 C-7.11301575 2.94946213 -6.68208618 2.43139496 -6.23809814 1.89762878 C-4.05657109 0.05611799 -2.83132253 0.06127173 0 0 Z " fill="#FEFEFE" transform="translate(647.5439453125,176.532470703125)"/>
<path d="M0 0 C13.48231752 -0.09600211 26.96413249 -0.10333836 40.44671631 -0.08093262 C41.45861401 -0.07936787 42.4705117 -0.07780312 43.51307297 -0.07619095 C53.85028857 -0.05955363 64.18745426 -0.03492904 74.52462101 0.00093746 C83.72037891 0.03279774 92.91568638 0.04510829 102.11148548 0.02961731 C108.22756102 0.02102682 114.34320285 0.03696329 120.45916271 0.07574463 C123.8930171 0.09700407 127.32596962 0.10734135 130.75985718 0.0881958 C134.47029205 0.07368238 138.17793271 0.10188573 141.88812256 0.14172363 C142.95532532 0.12747849 144.02252808 0.11323334 145.12207031 0.09855652 C149.99990723 0.19572649 153.2674198 0.4456558 156.78070068 4.03503418 C159.72470127 8.21923249 160.05357975 12.08433263 160.03656006 17.09094238 C160.04941544 17.94279114 160.06227081 18.79463989 160.07551575 19.67230225 C160.09266664 21.467367 160.0943042 23.26264013 160.08123779 25.05773926 C160.07178043 27.77564051 160.14205271 30.48363381 160.21820068 33.20031738 C160.30824778 41.42803953 160.32251441 47.76936742 154.91156006 54.41516113 C153.35222897 55.99159048 151.76288501 57.53938098 150.13421631 59.04406738 C149.14958453 60.1700938 148.17996664 61.30970012 147.23577881 62.46984863 C146.00988037 63.89877441 146.00988037 63.89877441 144.75921631 65.35656738 C140.97512776 69.79156718 137.32884675 74.31012829 133.75921631 78.91906738 C129.30825212 84.65846857 124.63473888 90.16610202 119.84759521 95.6270752 C115.82418141 100.22146852 111.94251046 104.90163605 108.13421631 109.67687988 C107.47421631 110.45805176 106.81421631 111.23922363 106.13421631 112.04406738 C105.14796265 113.33534546 105.14796265 113.33534546 104.14178467 114.65270996 C99.84273612 118.07094038 96.35872342 117.74839531 91.01312256 117.67297363 C90.03560532 117.67538559 89.05808807 117.67779755 88.0509491 117.68028259 C85.98743629 117.67930484 83.92389702 117.66592853 81.86053467 117.64099121 C78.71061548 117.60671861 75.56350848 117.62032761 72.41351318 117.63977051 C70.40503775 117.63287066 68.39656954 117.62319703 66.38812256 117.61047363 C65.45045547 117.6154335 64.51278839 117.62039337 63.54670715 117.62550354 C56.69100155 117.50273517 53.22682566 116.13667673 48.32171631 111.23156738 C46.47900755 107.83710389 46.0093326 105.97790432 46.13421631 102.04406738 C50.3148564 92.7156242 58.09526181 84.7121659 64.57562256 76.9185791 C66.73246798 74.32455355 68.8715504 71.71642319 71.00921631 69.10656738 C71.64601318 68.33441895 72.28281006 67.56227051 72.93890381 66.76672363 C74.91020874 64.32188459 76.84508972 61.85419226 78.77142334 59.37390137 C79.40130157 58.56315659 80.03117981 57.7524118 80.68014526 56.917099 C81.15998871 56.29899857 81.63983215 55.68089813 82.13421631 55.04406738 C81.44822515 55.0365253 80.76223398 55.02898321 80.05545521 55.02121258 C63.36306667 54.83668005 46.67095945 54.6359521 29.97898579 54.41720104 C21.9068603 54.31180506 13.83473645 54.21188975 5.76239014 54.12487793 C-1.27354598 54.04902367 -8.30926816 53.96288481 -15.34492522 53.86439878 C-19.070207 53.81261093 -22.79539272 53.76597219 -26.52087975 53.7316494 C-30.68002787 53.69313856 -34.83853277 53.63166813 -38.99737549 53.5682373 C-40.84990936 53.55636383 -40.84990936 53.55636383 -42.73986816 53.54425049 C-43.87423813 53.52329819 -45.00860809 53.50234589 -46.17735291 53.48075867 C-47.16090602 53.46877536 -48.14445913 53.45679205 -49.15781689 53.44444561 C-53.301593 52.83178015 -55.94319741 50.96665366 -58.86578369 48.04406738 C-60.25677535 44.30314284 -60.04523982 40.33132854 -60.06890869 36.39172363 C-60.07460876 35.65457626 -60.08030884 34.91742889 -60.08618164 34.15794373 C-60.09560635 32.60217717 -60.10215555 31.04639089 -60.10601807 29.49060059 C-60.11573648 27.11809395 -60.14678749 24.74644955 -60.17828369 22.37414551 C-60.18481334 20.85917667 -60.19006396 19.34420167 -60.19390869 17.82922363 C-60.20625549 17.12386978 -60.21860229 16.41851593 -60.23132324 15.69178772 C-60.2114232 11.26619797 -59.68674666 8.48708314 -56.86578369 5.04406738 C-51.87202276 0.94979103 -48.25170541 0.44551191 -42.06427002 0.43908691 C-41.20073347 0.42284145 -40.33719692 0.40659599 -39.4474926 0.38985825 C-36.59335496 0.34138183 -33.73978709 0.32125695 -30.88531494 0.30187988 C-28.86257533 0.27446868 -26.83985442 0.24564486 -24.81715393 0.21548462 C-16.54507031 0.10229721 -8.27256453 0.06273584 0 0 Z " fill="#FEFEFE" transform="translate(645.8657836914063,16.9559326171875)"/>
<path d="M0 0 C1.49159576 -0.02311794 2.98302098 -0.06415128 4.47363281 -0.12304688 C6.65622254 -0.20896805 8.83399087 -0.24077551 11.01806641 -0.26123047 C12.95262695 -0.30497803 12.95262695 -0.30497803 14.92626953 -0.34960938 C20.50032757 1.02533447 23.608101 3.79223164 26.73681641 8.59033203 C27.88982817 13.36333953 27.8234683 18.07657769 27.75610352 22.95751953 C27.76531953 24.40385392 27.77795012 25.85016994 27.79371643 27.29644775 C27.82578647 31.20606733 27.80773515 35.11395321 27.77848887 39.02353668 C27.75442049 43.12509503 27.77037981 47.22653421 27.78016663 51.328125 C27.790131 58.21463187 27.76714518 65.10044523 27.72485352 71.98681641 C27.67647741 79.93525135 27.68178191 87.88229149 27.7155475 95.83077049 C27.74672432 103.4939802 27.73827991 111.15667227 27.71246529 118.81988525 C27.7022815 122.0734266 27.70611061 125.32649882 27.7214489 128.58001709 C27.73784411 132.41544619 27.71948531 136.24921409 27.67491722 140.08440399 C27.66411492 141.48715946 27.66504461 142.89006484 27.67892075 144.29279327 C27.7488813 152.19129658 27.34998307 157.45445743 21.68846989 163.24777222 C18.04551605 165.75379261 14.34517704 165.68951437 10.04931641 165.59033203 C8.72420044 165.60447144 8.72420044 165.60447144 7.37231445 165.61889648 C5.62017661 165.63349362 3.8678129 165.63179438 2.11572266 165.61230469 C0.1038972 165.59372256 -1.90835886 165.63778901 -3.91943359 165.69580078 C-18.30707056 166.08515694 -18.30707056 166.08515694 -23.80938721 161.44145203 C-32.55161087 151.28367006 -28.55068978 126.79515972 -28.52880859 114.28955078 C-28.52925593 111.55865841 -28.53209928 108.8277692 -28.53460693 106.09687805 C-28.53822192 100.40090969 -28.53351033 94.70499359 -28.52392578 89.0090332 C-28.51301974 82.4525901 -28.51659233 75.89627122 -28.52757859 69.33983105 C-28.53669104 63.67143218 -28.53791828 58.0030704 -28.53270125 52.33466655 C-28.52960655 48.96594842 -28.52990562 45.5973348 -28.53577423 42.2286129 C-28.54088201 38.47499682 -28.53307067 34.72161622 -28.52197266 30.96801758 C-28.52804535 29.32580734 -28.52804535 29.32580734 -28.53424072 27.65042114 C-28.49167432 19.83587503 -28.36575981 11.55287952 -24.63818359 4.52783203 C-18.08360909 -0.81932086 -8.04137625 0.08665657 0 0 Z " fill="#FEFEFE" transform="translate(485.26318359375,126.40966796875)"/>
<path d="M0 0 C1.08655884 0.00418442 1.08655884 0.00418442 2.19506836 0.00845337 C3.71458413 0.02112146 5.23404621 0.05056666 6.75292969 0.09619141 C9.05780673 0.16392458 11.35827904 0.17819034 13.6640625 0.18359375 C20.89406777 0.2563769 27.52831166 0.3592395 34.0625 3.7890625 C38.11276518 8.62324997 38.18587529 14.53157994 38.19621277 20.61984253 C38.20047775 21.76085419 38.20474274 22.90186584 38.20913696 24.07745361 C38.20868378 25.31501404 38.20823059 26.55257446 38.20776367 27.82763672 C38.21112228 29.14214813 38.2144809 30.45665955 38.21794128 31.81100464 C38.2267504 35.40611784 38.22911808 39.00120721 38.22975707 42.59633017 C38.23046928 44.84541285 38.23260682 47.09448952 38.23525429 49.34357071 C38.24449718 57.19828931 38.24859046 65.05299098 38.24780273 72.90771484 C38.24720208 80.21607872 38.25775412 87.52436876 38.2735464 94.83271396 C38.28664374 101.11911104 38.29198572 107.40548404 38.29134732 113.69189465 C38.291093 117.44127892 38.29390789 121.1905975 38.30452538 124.93996811 C38.3160509 129.12392944 38.31144612 133.30772634 38.30541992 137.49169922 C38.31103943 138.72521118 38.31665894 139.95872314 38.32244873 141.22961426 C38.26982272 155.61603609 38.26982272 155.61603609 34.0625 161.6640625 C24.0879424 168.72937413 6.77101536 166.60684606 -4.8125 165.1015625 C-9.70470951 164.14364735 -12.0571241 162.86131809 -14.9375 158.7890625 C-16.00776618 155.57826396 -16.08196714 153.23381093 -16.11158752 149.85675049 C-16.12452347 148.61744781 -16.13745941 147.37814514 -16.15078735 146.10128784 C-16.16000709 144.72540387 -16.16906537 143.34951881 -16.17797852 141.97363281 C-16.1907919 140.52643558 -16.20392742 139.07924117 -16.21736145 137.63204956 C-16.33321073 124.42673502 -16.38988736 111.22067005 -16.43412876 98.01494217 C-16.46737703 88.25502567 -16.52695579 78.49603663 -16.62163979 68.73651814 C-16.68598629 61.87187399 -16.71966764 55.00748251 -16.73087829 48.14254832 C-16.7384357 44.04337295 -16.75958739 39.94531853 -16.81390572 35.84647369 C-16.86443238 31.988288 -16.87692414 28.13181402 -16.86065483 24.27334976 C-16.8612574 22.86038638 -16.87548109 21.44735043 -16.90460205 20.03468704 C-17.11139726 9.4461914 -17.11139726 9.4461914 -14.23165703 5.38101387 C-9.82686361 1.33748934 -6.04130185 -0.23830697 0 0 Z " fill="#FEFEFE" transform="translate(25.9375,126.2109375)"/>
<path d="M0 0 C3.86977122 3.71048282 3.55314082 7.89371432 3.6875 12.9375 C3.72020996 13.8337207 3.75291992 14.72994141 3.78662109 15.65332031 C3.87845173 18.43544859 3.94448856 21.2169264 4 24 C4.01659668 24.77424316 4.03319336 25.54848633 4.05029297 26.34619141 C4.13905529 31.36400215 4.10216942 36.37517738 4.03271484 41.39306641 C4.00748366 44.17489826 4.00153188 46.95406351 4.01025391 49.73583984 C4.02344965 54.22286662 3.99879259 58.70861697 3.95526123 63.19543457 C3.94348075 65.01416271 3.94356135 66.83300877 3.95587158 68.6517334 C3.97073832 71.23665122 3.94123662 73.81774703 3.90234375 76.40234375 C3.9165889 77.17970383 3.93083405 77.9570639 3.94551086 78.75798035 C3.85729556 82.07858319 3.64538441 84.18576568 1.54490662 86.83578491 C-1.58161402 89.68062444 -4.29548316 91.73499347 -8.64453125 91.859375 C-9.49611816 91.89611328 -10.34770508 91.93285156 -11.22509766 91.97070312 C-12.59867432 91.98520508 -12.59867432 91.98520508 -14 92 C-14.99950684 92.03544922 -15.99901367 92.07089844 -17.02880859 92.10742188 C-20.24958194 92.20464528 -23.4653659 92.23457386 -26.6875 92.25 C-27.77611328 92.270625 -28.86472656 92.29125 -29.98632812 92.3125 C-36.11464716 92.34230338 -40.63289738 92.05859308 -46 89 C-53.08935731 81.53751862 -51.15866903 68.50925332 -51.16796875 58.87890625 C-51.17129715 57.6577562 -51.17462555 56.43660614 -51.17805481 55.17845154 C-51.18308878 52.61107761 -51.18546424 50.04369722 -51.18530273 47.47631836 C-51.18749175 43.57720054 -51.20569259 39.67836489 -51.22460938 35.77929688 C-51.22754365 33.27083429 -51.22952822 30.76237038 -51.23046875 28.25390625 C-51.23765427 27.10354385 -51.24483978 25.95318146 -51.25224304 24.76795959 C-51.20120059 6.43937592 -51.20120059 6.43937592 -47 -0.125 C-36.38171496 -6.76142815 -10.3721601 -7.00120807 0 0 Z " fill="#FEFEFE" transform="translate(508,21)"/>
<path d="M0 0 C1.10085937 0.03544922 2.20171875 0.07089844 3.3359375 0.10742188 C4.398125 0.15060547 5.4603125 0.19378906 6.5546875 0.23828125 C7.50585449 0.27606689 8.45702148 0.31385254 9.43701172 0.3527832 C13.97538716 0.91791606 17.13516549 2.20894654 20.125 5.6875 C22.64445496 13.70796672 22.43488098 21.83588769 22.42578125 30.16015625 C22.4296765 31.65270607 22.43401285 33.14525479 22.43876648 34.63780212 C22.4461901 37.75181692 22.44596467 40.86571824 22.44067383 43.97973633 C22.43487013 47.95282521 22.45185035 51.92544928 22.4750185 55.89846134 C22.4898068 58.97585219 22.49062089 62.0531322 22.48750877 65.13055229 C22.48801896 66.59485231 22.49319933 68.05915902 22.50332069 69.52342415 C22.60883773 86.91334245 22.60883773 86.91334245 16.875 93.125 C10.20473207 96.91492496 1.56751949 95.87082818 -5.875 95.875 C-7.02484375 95.88724609 -8.1746875 95.89949219 -9.359375 95.91210938 C-23.14998717 95.93594108 -23.14998717 95.93594108 -27.6171875 92.25 C-31.2082965 87.29674621 -32.02871998 84.5884658 -32.05200195 78.57910156 C-32.05857315 77.8471759 -32.06514435 77.11525024 -32.07191467 76.36114502 C-32.09166064 73.93347067 -32.10331414 71.50585827 -32.11328125 69.078125 C-32.11735678 68.24897331 -32.1214323 67.41982162 -32.12563133 66.56554413 C-32.1464993 62.17553455 -32.16079689 57.78555628 -32.17016602 53.39550781 C-32.18122187 48.86484066 -32.21560984 44.33466581 -32.25533772 39.80417252 C-32.28150953 36.31767883 -32.28985842 32.83130221 -32.29344749 29.34471893 C-32.29831334 27.67499218 -32.30992736 26.00527066 -32.32848549 24.33563995 C-32.3528861 21.99452493 -32.35191065 19.65468035 -32.3449707 17.31347656 C-32.35778076 16.62753418 -32.37059082 15.9415918 -32.38378906 15.23486328 C-32.33048363 10.28468635 -30.91955363 7.52649743 -27.875 3.6875 C-21.10439206 -2.69901433 -8.61325301 -0.3760571 0 0 Z " fill="#FEFEFE" transform="translate(41.875,17.3125)"/>
<path d="M0 0 C0.81805115 -0.01283524 1.63610229 -0.02567047 2.47894287 -0.03889465 C3.80082611 -0.04997505 3.80082611 -0.04997505 5.14941406 -0.0612793 C6.06080139 -0.06935104 6.97218872 -0.07742279 7.91119385 -0.08573914 C9.84116723 -0.09956945 11.77116497 -0.11029631 13.70117188 -0.11816406 C16.6401255 -0.13535234 19.57794678 -0.17924473 22.51660156 -0.22338867 C24.39419748 -0.23351829 26.27180294 -0.24203355 28.14941406 -0.2487793 C29.02257263 -0.26628738 29.8957312 -0.28379547 30.79534912 -0.30183411 C37.57836559 -0.27794445 41.99623603 1.25819892 46.91503906 6.17700195 C47.16900635 8.02735901 47.16900635 8.02735901 47.17382812 10.30029297 C47.18013245 11.15200577 47.18643677 12.00371857 47.19293213 12.88124084 C47.18888367 13.80513107 47.18483521 14.7290213 47.18066406 15.6809082 C47.18353424 17.10958473 47.18353424 17.10958473 47.1864624 18.56712341 C47.18782575 20.58885969 47.1841189 22.61060467 47.17578125 24.63232422 C47.16516609 27.7027605 47.1756286 30.77260059 47.18847656 33.84301758 C47.18715338 35.80981573 47.18458772 37.77661352 47.18066406 39.7434082 C47.18471252 40.65312881 47.18876099 41.56284943 47.19293213 42.50013733 C47.08869337 56.94761292 47.08869337 56.94761292 42.47753906 61.67700195 C37.86665988 64.37605318 33.75211372 64.35230461 28.55566406 64.38012695 C27.73306091 64.38582703 26.91045776 64.3915271 26.06292725 64.3973999 C24.32126143 64.40684418 22.57957778 64.41338162 20.83789062 64.41723633 C18.18880498 64.42691512 15.54050428 64.45793216 12.89160156 64.48950195 C11.19629365 64.49603516 9.50098021 64.50128439 7.80566406 64.50512695 C7.02000061 64.51747375 6.23433716 64.52982056 5.42486572 64.5425415 C-0.41662844 64.51918493 -5.39076553 63.59248749 -9.89746094 59.55200195 C-13.95202813 51.44286758 -13.39488518 42.24214988 -13.34570312 33.41113281 C-13.33496806 31.11602458 -13.34565205 28.82169603 -13.35839844 26.52661133 C-13.35707691 25.04418775 -13.35451466 23.56176466 -13.35058594 22.0793457 C-13.3546344 21.40516098 -13.35868286 20.73097626 -13.362854 20.03636169 C-13.29367273 12.89195803 -12.30819485 6.40023587 -7.08496094 1.17700195 C-4.39201978 0.2793549 -2.76978096 0.03795683 0 0 Z " fill="#FEFEFE" transform="translate(1185.0849609375,225.822998046875)"/>
</svg>
